<?xml version="1.0" encoding="UTF-8"?>
<svg version="1.1" xmlns="http://www.w3.org/2000/svg" width="1174" height="212">
<path d="M0 0 C3.76924794 2.78924348 5.81111492 5.4606206 7 10 C7.47906771 15.26974477 6.82365965 18.52109159 4 23 C1.5 25.875 1.5 25.875 -1 28 C-1.99 28 -2.98 28 -4 28 C-3.75208458 28.87196014 -3.75208458 28.87196014 -3.49916077 29.76153564 C-2.71147208 33.29389069 -3.04519833 36.82925984 -3.18359375 40.421875 C-3.2254811 42.10411394 -3.26512336 43.78641001 -3.30273438 45.46875 C-3.36424758 48.10769092 -3.43722632 50.74351835 -3.54858398 53.38085938 C-4.31578789 63.56130774 -4.31578789 63.56130774 -1.18798828 72.91601562 C0.77913941 74.83588369 2.78889224 76.38298157 5 78 C5 78.66 5 79.32 5 80 C7.3431213 79.74438677 9.67843403 79.40729228 12 79 C12.33 78.34 12.66 77.68 13 77 C14.65 76.67 16.3 76.34 18 76 C18 71.38 18 66.76 18 62 C16.02 61.505 16.02 61.505 14 61 C9.96099872 57.20693323 7.03381587 52.6195854 6.69140625 47.01953125 C7.46395047 41.96376719 11.14123172 37.2322157 15 34 C15.99 34 16.98 34 18 34 C18.495 33.01 18.495 33.01 19 32 C24.94934522 31.50422123 29.05710528 32.57964552 34 36 C37.54711702 39.63579495 38.28578227 42.56629785 38.5 47.5 C38.29969749 52.4207651 37.42917072 55.30010527 34 59 C32.9275 59.5775 31.855 60.155 30.75 60.75 C27.79355723 62.67014598 27.79355723 62.67014598 27.58203125 65.36328125 C27.55430155 69.19552621 27.78358032 72.35074097 29 76 C30.94472734 77.31759384 30.94472734 77.31759384 33.3125 78.3125 C34.09238281 78.67988281 34.87226562 79.04726562 35.67578125 79.42578125 C37.97281308 80.21239248 37.97281308 80.21239248 40.0625 79.31640625 C42.14949587 77.8984272 43.89727643 76.40357353 45.6875 74.625 C46.59048828 73.74714844 46.59048828 73.74714844 47.51171875 72.8515625 C49.93797733 69.83306757 50.12580433 66.74773341 50.11352539 62.96582031 C50.11344986 62.18531311 50.11337433 61.40480591 50.11329651 60.60064697 C50.10813522 59.76821472 50.10297394 58.93578247 50.09765625 58.078125 C50.0962413 57.21813904 50.09482635 56.35815308 50.09336853 55.47210693 C50.08778097 52.73136891 50.07523075 49.99071324 50.0625 47.25 C50.05748339 45.3893241 50.05292077 43.52864691 50.04882812 41.66796875 C50.03781561 37.11194754 50.02055951 32.55598772 50 28 C49.21141602 27.70053467 48.42283203 27.40106934 47.61035156 27.0925293 C43.57274134 25.40263912 41.33035231 22.64301912 39 19 C37.61009591 14.04846667 37.8256128 10.65940114 40 6 C42 3.625 42 3.625 44 2 C44.66 2 45.32 2 46 2 C46.33 1.34 46.66 0.68 47 0 C51.81116448 -2.22956403 55.97599403 -2.53427727 61 -1 C66.00862756 2.21308183 68.24199417 5.33531456 70 11 C70.62071685 15.96573484 69.83290087 19.0769852 67.4609375 23.32421875 C66 25 66 25 62.9453125 26.65649414 C59.68738558 28.73528166 59.68738558 28.73528166 59.31884766 32.29980469 C59.35026855 33.57758789 59.38168945 34.85537109 59.4140625 36.171875 C59.42255219 36.8542926 59.43104187 37.53671021 59.43978882 38.23980713 C59.47327943 40.4115038 59.54852758 42.57943383 59.625 44.75 C59.65510626 46.22520663 59.68248095 47.7004717 59.70703125 49.17578125 C59.77304915 52.78507044 59.87653083 56.39216742 60 60 C60.33 59.34 60.66 58.68 61 58 C61.66 58 62.32 58 63 58 C63.33 57.01 63.66 56.02 64 55 C65.20903934 54.15784157 66.44120477 53.34847401 67.6875 52.5625 C69.70889355 51.08918391 69.70889355 51.08918391 71 49 C70.81995481 45.83823088 70.10807106 42.99143374 69.375 39.9140625 C68.95232092 36.62949378 69.23045759 35.58760396 71.125 32.9375 C75.49551422 28.06952888 78.86990061 26.23185921 85.375 25.75 C90.48171493 26.10218724 93.49833541 27.62347413 97.25 31.0625 C99.73715111 35.23736079 101.00744132 39.11105155 101 44 C99.06189188 49.64076243 95.27428174 53.30903993 90 56 C86.29418757 57.04729482 83.58355519 56.95737256 79.875 56.25 C78.59625 56.1675 77.3175 56.085 76 56 C73.65057354 58.18672862 73.65057354 58.18672862 72 61 C71.278125 61.53625 70.55625 62.0725 69.8125 62.625 C67.70001167 63.95882513 67.70001167 63.95882513 67 67 C82.345 66.505 82.345 66.505 98 66 C98.99 64.02 98.99 64.02 100 62 C100.66 62 101.32 62 102 62 C102.33 61.01 102.66 60.02 103 59 C106.69576557 56.72845628 110.32736575 55.98840286 114.625 56.0625 C119.82022569 57.50561825 122.90790995 59.70673546 126.375 63.8125 C128.68223501 68.3382302 128.58492856 71.76663641 127.3125 76.625 C124.73355472 81.29166289 120.84477774 84.80831483 116 87 C111.12247803 87.63227137 107.81483329 86.93259163 103.59469604 84.34655762 C101.81389629 82.84285447 100.9885788 81.41908197 99.85986328 79.39257812 C98.35561738 77.23033484 97.56710826 76.17973365 95.03411865 75.37695312 C92.61711742 75.17336595 90.29093512 75.18602439 87.8671875 75.28125 C86.99353546 75.28878296 86.11988342 75.29631592 85.21975708 75.30407715 C82.43654032 75.33654101 79.65715754 75.41818599 76.875 75.5 C74.99613515 75.52654953 73.11722411 75.55002083 71.23828125 75.5703125 C62.48671966 75.4159141 62.48671966 75.4159141 54 77 C54 77.66 54 78.32 54 79 C52.84449231 79.95667968 51.65031046 80.86709297 50.4375 81.75 C48.49569287 83.28896086 48.49569287 83.28896086 47 85 C46.84803246 88.00903791 46.84803246 88.00903791 48 91 C48.33859959 93.33257494 48.6732039 95.66574212 49 98 C49.97839844 97.87431641 49.97839844 97.87431641 50.9765625 97.74609375 C55.88249144 97.17445896 60.13127185 96.84688018 65 98 C65.28875 97.2575 65.5775 96.515 65.875 95.75 C66.431875 94.38875 66.431875 94.38875 67 93 C67.20625 92.278125 67.4125 91.55625 67.625 90.8125 C69.52856921 88.30324968 71.70265342 87.86103267 74.7109375 87.25390625 C79.92529413 86.67552198 84.31370017 87.01021532 88.875 89.6875 C92.86500055 94.02955942 94.5966003 97.98272105 94.35546875 103.9765625 C93.58440919 108.36567077 91.27312128 111.63594149 88.25 114.875 C83.04212417 117.47893791 77.34983601 117.50468715 71.83203125 115.9375 C68.50372724 114.23431671 66.61848946 111.29922852 65 108 C65 107.34 65 106.68 65 106 C59.72 106 54.44 106 49 106 C48.67 108.31 48.34 110.62 48 113 C46.9375 115.9375 46.9375 115.9375 46 118 C47.21929728 119.30098717 48.45092452 120.59042437 49.6875 121.875 C50.37199219 122.59429687 51.05648437 123.31359375 51.76171875 124.0546875 C56.64215031 128.29631912 61.66405299 128.36406913 67.84375 128.4765625 C69.11381897 128.50077774 69.11381897 128.50077774 70.4095459 128.52548218 C72.19466071 128.5530597 73.97987866 128.57455039 75.76513672 128.59033203 C77.58869368 128.613448 79.41211131 128.65447548 81.23486328 128.71337891 C83.87625474 128.79867731 86.51365352 128.83103803 89.15625 128.8515625 C90.37362854 128.90408676 90.37362854 128.90408676 91.61560059 128.95767212 C93.99556873 128.939452 95.7696601 128.84154226 98 128 C99.65609469 126.07115166 100.73755459 124.20906329 101.82653809 121.91537476 C103.26015727 119.57536016 104.46371183 118.96413905 107 118 C112.82225475 117.26020855 118.15809981 117.42621653 123 121 C126.06975696 124.90875806 127.79173856 129.00172534 128 134 C127.23698243 139.34112299 125.44820793 142.61212234 121.265625 145.8984375 C116.77604022 148.08130458 111.8337541 147.84952899 107 147 C103.44083925 145.42228248 102.2059291 144.37576846 100.31298828 140.92163086 C98.2510315 137.6702465 98.2510315 137.6702465 94.60839844 137.31884766 C93.27501318 137.3197913 91.94137727 137.35334102 90.609375 137.4140625 C89.90476135 137.42255219 89.20014771 137.43104187 88.47418213 137.43978882 C86.23120919 137.47328692 83.99187901 137.54853952 81.75 137.625 C80.22661457 137.65510515 78.70317256 137.68248003 77.1796875 137.70703125 C73.45194813 137.77305981 69.72632975 137.87654871 66 138 C67.57193663 139.51193905 69.15798801 141.00921421 70.75 142.5 C71.63171875 143.3353125 72.5134375 144.170625 73.421875 145.03125 C76.58309262 147.44527073 78.44124348 147.16700963 82.296875 146.75390625 C87.39941813 146.35577788 90.4262501 146.74079953 94.4375 150.0625 C97.86918459 153.5289887 99.83187111 156.24404667 101 161 C100.64686071 166.27690991 98.81299603 170.29292053 95 174 C90.56130208 176.86049421 87.2453441 177.63305877 82 177 C76.84530484 175.34734964 72.73899442 172.71967545 69.7265625 168.171875 C68.75588099 165.2702679 69.27690395 163.24623297 69.8125 160.25 C70.77531299 152.29455376 70.77531299 152.29455376 60 143 C59.67 153.23 59.34 163.46 59 174 C60.65 174.66 62.3 175.32 64 176 C67.58230758 178.9454529 68.78073885 180.49541484 69.453125 185.109375 C69.73175891 193.9062457 69.73175891 193.9062457 67.16015625 197.75 C64.40029238 200.62465025 61.84241145 202.87503543 58 204 C52.27119273 203.94473819 46.83386184 202.20325275 42.34375 198.61328125 C39.32338388 194.98708588 38.86556419 190.45121296 39.1171875 185.86328125 C39.33580647 184.23026379 39.65712472 182.61151383 40 181 C40.66 181 41.32 181 42 181 C42.226875 180.401875 42.45375 179.80375 42.6875 179.1875 C44.35609042 176.40651597 46.1283832 175.4358084 49 174 C49.66 174 50.32 174 51 174 C50.82976318 173.50322754 50.65952637 173.00645508 50.48413086 172.49462891 C49.80687543 169.00486795 50.07869342 165.61323372 50.25390625 162.0859375 C50.30555992 160.50399598 50.35429325 158.92195692 50.40039062 157.33984375 C50.47400556 154.86237096 50.561647 152.39031745 50.69946289 149.91552734 C51.55218974 139.70887556 51.55218974 139.70887556 47.73388672 130.62207031 C45.27361346 128.16049555 42.83336115 126.01484878 40 124 C39.24332031 124.30679688 38.48664063 124.61359375 37.70703125 124.9296875 C34.83615325 126.06478212 31.93494299 127.04443717 29 128 C28.13852726 134.97761838 28.13852726 134.97761838 28 142 C28.556875 142.04125 29.11375 142.0825 29.6875 142.125 C33.23222364 143.46624678 34.78684295 146.00924722 37 149 C38.68259071 154.04777214 38.63436918 158.35064013 36.75 163.25 C34.29061775 167.11474354 32.39676672 169.53441109 28 171 C22.66135304 171.63111912 18.06994015 171.41490779 13.51171875 168.38671875 C10.60702726 165.72220847 8.99375128 162.80159886 8 159 C7.91058025 154.74912259 8.66041508 151.01875477 10 147 C11.33222242 146.17193786 12.69027141 145.38492906 14.0625 144.625 C16.34099899 143.17567887 16.34099899 143.17567887 18 141 C18.70838903 136.59224601 18.47282068 132.42612689 18 128 C16.75108386 127.51801537 15.50081192 127.03954323 14.25 126.5625 C13.55390625 126.29566406 12.8578125 126.02882812 12.140625 125.75390625 C10.10828289 125.03813613 8.0920788 124.50769311 6 124 C1.8700624 127.22095859 -2.23116059 130.75349792 -3.48339844 136.04119873 C-4.10371399 141.66467689 -3.77526855 147.30045523 -3.5 152.9375 C-3.42009062 155.47847388 -3.35291511 158.01953939 -3.28771973 160.56092834 C-3.24262218 162.13278723 -3.1863601 163.70437574 -3.11755371 165.27537537 C-2.98475961 168.50470114 -2.96781806 170.90345418 -4 174 C-3.278125 174.20625 -2.55625 174.4125 -1.8125 174.625 C1.98456 176.48134044 3.4981308 178.59467803 6 182 C7.35700028 186.07100084 7.86631806 189.80951702 6.24609375 193.90625 C3.59384195 198.81551608 1.0974805 201.1074551 -3.9375 203.25 C-9.33936876 204.57290663 -13.41329685 202.73998147 -18.1953125 200.22265625 C-21.10440226 198.25177942 -21.97864339 196.31940898 -23 193 C-23.76023972 187.56971627 -22.98995969 183.69850809 -20 179 C-17.63254428 176.26262933 -16.45870295 175.15290098 -13 174 C-13 163.77 -13 153.54 -13 143 C-20.52096636 148.79891442 -20.52096636 148.79891442 -24.40234375 156.96875 C-24.13742886 158.84115815 -23.81559967 160.70652365 -23.43359375 162.55859375 C-23 165 -23 165 -24.0625 168.375 C-27.61365347 173.18624018 -30.49388247 176.05833658 -36.4375 177 C-42.46955526 177.33455096 -46.38818565 175.43661713 -50.875 171.4375 C-53.88627155 167.49511159 -54.11641774 162.8313364 -54 158 C-53.67 157.01 -53.34 156.02 -53 155 C-52.34 155 -51.68 155 -51 155 C-51 154.01 -51 153.02 -51 152 C-45.80486049 148.64480573 -42.19648162 147.29507055 -36 147 C-35.01 147.309375 -34.02 147.61875 -33 147.9375 C-29.95599401 148.31174575 -29.95599401 148.31174575 -27.88671875 146.39453125 C-23.59259245 142.25754981 -23.59259245 142.25754981 -21 137 C-31.23 137 -41.46 137 -52 137 C-52.66 138.65 -53.32 140.3 -54 142 C-57.47409361 145.83214783 -61.03798537 147.76917475 -66.1875 148.375 C-71.15279323 147.8866105 -74.22506095 146.20529735 -78 143 C-81.13572471 138.78636992 -81.64304928 134.60939158 -81.48046875 129.46875 C-80.41886965 124.01402942 -76.52701458 121.17189491 -72.3125 117.9375 C-67.14979412 116.47635683 -62.9641735 117.01050547 -58 119 C-56.20385742 121.12207031 -56.20385742 121.12207031 -54.54296875 123.578125 C-52.00215047 126.58363925 -50.69597369 127.84246541 -46.8203125 128.71972656 C-43.07469992 128.85026795 -39.42777049 128.73602725 -35.6875 128.5 C-33.17074417 128.40175992 -30.65381142 128.30794349 -28.13671875 128.21875 C-26.9357959 128.1671875 -25.73487305 128.115625 -24.49755859 128.0625 C-19.61482088 127.97524739 -14.84081208 128.39466398 -10 129 C-10 128.34 -10 127.68 -10 127 C-8.35546875 125.30859375 -8.35546875 125.30859375 -6.1875 123.4375 C-5.47980469 122.81746094 -4.77210937 122.19742188 -4.04296875 121.55859375 C-2 120 -2 120 1 119 C0.79503906 118.46890625 0.59007813 117.9378125 0.37890625 117.390625 C0.10949219 116.68421875 -0.15992187 115.9778125 -0.4375 115.25 C-0.70433594 114.55390625 -0.97117187 113.8578125 -1.24609375 113.140625 C-2 111 -2 111 -3 107 C-7.95 106.67 -12.9 106.34 -18 106 C-18.66 107.65 -19.32 109.3 -20 111 C-22.2121439 114.24447772 -23.90912088 115.73192885 -27.75 116.67578125 C-32.42805378 117.2546904 -36.68967407 117.65516296 -41 115.5 C-44.42153299 112.64872251 -46.74239225 110.32144406 -48 106 C-48.06812714 102.89759494 -47.65459359 100.02679601 -47 97 C-46.88140625 96.30648437 -46.7628125 95.61296875 -46.640625 94.8984375 C-45.42301816 91.29016356 -42.25134013 89.69170309 -39 88 C-33.80028526 86.25973036 -29.06883464 86.96301938 -23.98828125 88.83203125 C-20.58192056 90.8330172 -19.54648583 93.43635873 -18 97 C-13.05 97 -8.1 97 -3 97 C-0.71914555 91.81992789 -0.71914555 91.81992789 0 86.3125 C-2.13486666 81.37562084 -6.33126203 78.39573785 -11 76 C-13.63153178 75.60740683 -13.63153178 75.60740683 -16.39453125 75.7421875 C-17.42586182 75.75701172 -18.45719238 75.77183594 -19.51977539 75.78710938 C-20.60637451 75.81611328 -21.69297363 75.84511719 -22.8125 75.875 C-25.05723812 75.90757256 -27.30203671 75.93621354 -29.546875 75.9609375 C-31.19139648 75.97979004 -31.19139648 75.97979004 -32.86914062 75.99902344 C-39.26676444 76.00101895 -45.62693511 75.53188023 -52 75 C-52.10441406 75.76828125 -52.20882812 76.5365625 -52.31640625 77.328125 C-53.37489778 81.46531477 -55.61170299 82.51063893 -59 85 C-63.36580617 87.18290308 -69.35352331 86.45540845 -73.9375 85.1875 C-77.22617002 83.29402332 -78.60770295 81.86718294 -80.1875 78.375 C-81.57520636 72.61068127 -82.05705135 67.24868743 -79 62 C-76.53284722 58.91605903 -73.68420876 57.36452176 -70 56 C-63.98221769 55.70881698 -59.66664596 57.09304059 -55 61 C-54.42797852 61.86133545 -53.85595703 62.7226709 -53.26660156 63.61010742 C-51.16692519 66.29831904 -51.16692519 66.29831904 -47.79199219 66.56762695 C-45.93815918 66.52835083 -45.93815918 66.52835083 -44.046875 66.48828125 C-43.38665344 66.48120651 -42.72643188 66.47413177 -42.04620361 66.46684265 C-39.94629508 66.43894727 -37.84909621 66.37623287 -35.75 66.3125 C-34.3229553 66.28741017 -32.89586862 66.26459817 -31.46875 66.24414062 C-27.97829252 66.1891412 -24.48941089 66.10290912 -21 66 C-23.32381159 61.35237681 -27.95573703 58.11986001 -32 55 C-32.99 55.495 -32.99 55.495 -34 56 C-39.26674595 56.65432078 -43.92100204 56.43307576 -48.421875 53.45703125 C-51.60955781 50.51394787 -53.62891994 47.09986378 -55 43 C-55.10189053 40.06458223 -54.68380428 37.89301811 -54 35 C-53.34 35 -52.68 35 -52 35 C-51.91363281 34.39542969 -51.82726562 33.79085937 -51.73828125 33.16796875 C-50.78867557 30.37944413 -49.69683794 29.78830728 -47.1875 28.3125 C-46.50042969 27.89613281 -45.81335937 27.47976562 -45.10546875 27.05078125 C-41.48442403 25.24361793 -39.59083747 24.88183251 -35.5625 25.6875 C-29.9509304 27.75492038 -26.57995072 30.58210348 -24 36 C-22.61477105 40.90157937 -23.37536011 44.22164738 -25 49 C-24.38511719 49.61488281 -23.77023438 50.22976562 -23.13671875 50.86328125 C-19.7578125 54.2421875 -16.37890625 57.62109375 -13 61 C-13 50.44 -13 39.88 -13 29 C-14.65 28.34 -16.3 27.68 -18 27 C-20.3125 25.125 -20.3125 25.125 -22 23 C-22 21.68 -22 20.36 -22 19 C-22.66 18.67 -23.32 18.34 -24 18 C-24.05447047 16.58376784 -24.09300508 15.16691809 -24.125 13.75 C-24.14820313 12.96109375 -24.17140625 12.1721875 -24.1953125 11.359375 C-23.86133702 7.32495115 -22.48175479 5.43357931 -19.5 2.75 C-17 1 -17 1 -15 1 C-14.67 0.34 -14.34 -0.32 -14 -1 C-9.83219492 -3.08390254 -4.32277419 -1.171593 0 0 Z M-13.375 8.0625 C-15.30499938 10.02887707 -15.30499938 10.02887707 -15.5625 13.4375 C-15.30401703 17.08215227 -15.30401703 17.08215227 -12.875 19.5 C-10.07850006 21.23016087 -10.07850006 21.23016087 -6.875 21.0625 C-3.86914701 20.21555177 -3.86914701 20.21555177 -2.0625 17.75 C-0.85640123 14.62833259 -1.01059903 13.14809399 -2 10 C-2.99 9.67 -3.98 9.34 -5 9 C-5 8.34 -5 7.68 -5 7 C-8.18136394 6.78308882 -10.43969547 6.74933745 -13.375 8.0625 Z M49.5625 8.5 C47.5626807 11.69971089 47.7162462 13.58585063 48.38671875 17.22265625 C48.89274974 19.17241658 48.89274974 19.17241658 50.8125 20.5625 C54.78401609 21.35680322 57.52988202 19.85899178 61 18 C61.44308651 12.78351897 61.44308651 12.78351897 59.875 8 C56.12093002 5.99782934 53.12713685 6.30637732 49.5625 8.5 Z M-45 37 C-45.6490797 40.96659818 -45.58134755 43.06984392 -43.4375 46.5 C-40.96246698 48.31664219 -40.96246698 48.31664219 -37.375 48 C-34.0261982 47.34164041 -34.0261982 47.34164041 -32.5625 45.3125 C-31.83172474 42.3082017 -31.54153331 40.07827636 -32 37 C-36.68463695 33.20164571 -40.3456432 33.10040376 -45 37 Z M80.6875 34.5 C78.68523123 36.03104878 78.68523123 36.03104878 77.875 39.3125 C77.61757015 43.20121596 77.61757015 43.20121596 80.625 46 C83.7314908 48.22834899 83.7314908 48.22834899 86.6875 48 C89.21849879 46.90551404 90.48484304 46.31260798 92 44 C92.39015561 40.87875511 92.55877549 38.90024939 90.875 36.1875 C87.58675771 34.10494655 84.47182462 33.68176765 80.6875 34.5 Z M17 43 C15.64495025 47.06514926 16.36346019 49.08653524 18 53 C20.79698704 54.73801735 20.79698704 54.73801735 24 55 C26.33725801 54.25124046 26.33725801 54.25124046 28 53 C28 52.34 28 51.68 28 51 C28.66 50.67 29.32 50.34 30 50 C30.23428313 45.2102679 30.23428313 45.2102679 28 41 C23.29746965 39.53699056 20.84959579 39.92032336 17 43 Z M-70.375 65.5625 C-72.44937658 68.67406486 -72.53621874 70.32307147 -72 74 C-71.02896212 76.46186579 -71.02896212 76.46186579 -69 78 C-65.36726389 78.61833806 -63.67609155 78.43339202 -60.5625 76.4375 C-58.62986113 73.95414023 -58.62986113 73.95414023 -59.25 70.25 C-59.4975 69.1775 -59.745 68.105 -60 67 C-60.66 67 -61.32 67 -62 67 C-62 66.34 -62 65.68 -62 65 C-66.38528176 63.75482824 -66.38528176 63.75482824 -70.375 65.5625 Z M107.8125 65.1875 C105.87264387 66.90480266 105.87264387 66.90480266 105 69.3125 C105 73.33139696 106.29543411 75.09259166 109 78 C112.5431661 78.55944728 114.75712356 78.6815774 117.9375 76.9375 C119.65989792 73.79665674 119.49148241 71.50181214 119 68 C116.87314071 65.4482714 116.87314071 65.4482714 114 64 C110.17106254 63.68193876 110.17106254 63.68193876 107.8125 65.1875 Z M11 88 C6.75244576 92.20151029 4.86030109 95.82866581 4.75 101.8125 C4.84443674 107.234743 5.72901324 110.68544515 9.62890625 114.66015625 C14.65542982 118.95554912 19.39427283 120.50011815 26 120 C28.88664287 119.2526491 31.27619173 118.26102235 34 117 C34 116.34 34 115.68 34 115 C34.8971875 114.9690625 34.8971875 114.9690625 35.8125 114.9375 C38.35558992 114.11585015 38.35558992 114.11585015 39.6875 110.875 C41.90284526 104.86541701 42.68847788 99.90812151 40.14453125 93.92578125 C37.50905436 89.49134402 33.66786713 86.83393357 29.125 84.5625 C22.63752663 83.39475479 16.55049971 84.3417161 11 88 Z M-39 99 C-39.45339217 102.17374516 -39.58558918 104.05655076 -37.875 106.8125 C-35.21117432 108.4995896 -33.14141856 108.87177883 -30 109 C-27.5 108.16666667 -27.5 108.16666667 -26 106 C-25.41995324 102.01217855 -25.36773945 99.91326523 -27.6875 96.5625 C-29.89596727 94.85332941 -29.89596727 94.85332941 -32.5 94.5 C-35.87013879 95.17402776 -37.01677007 96.2087875 -39 99 Z M72 99 C71.38804855 102.6717087 71.51293494 104.28813568 73.625 107.375 C75.94844013 109.19887378 75.94844013 109.19887378 79 109.5625 C82.14627033 109.23496998 82.14627033 109.23496998 84.4375 106.875 C86.24870485 104.08774307 86.24870485 104.08774307 86 100.875 C84.84834332 97.56398704 84.1151646 96.5575823 81 95 C76.55748706 94.22256024 74.58861349 95.35676619 72 99 Z M-70.8125 127.1875 C-72.31165387 129.47568222 -72.72857966 131.28579657 -73 134 C-72.67 134.99 -72.34 135.98 -72 137 C-71.34 137 -70.68 137 -70 137 C-70 137.66 -70 138.32 -70 139 C-67.25038489 139.94607807 -67.25038489 139.94607807 -64 140 C-60.93692369 138.02033737 -60.93692369 138.02033737 -59 135 C-59 131.99074495 -59.82413442 130.34247508 -61.1875 127.6875 C-62.96139612 125.71524831 -62.96139612 125.71524831 -66 125.5625 C-68.93470989 125.77520407 -68.93470989 125.77520407 -70.8125 127.1875 Z M107.125 127.1875 C105.64594594 129.57042043 105.13408693 131.18417448 105 134 C105.84745634 136.85701707 105.84745634 136.85701707 108 139 C111.40528996 140.24838381 111.40528996 140.24838381 115 140 C117.60314994 138.6469872 117.60314994 138.6469872 119 136 C119.42519574 132.53769185 119.63902633 130.1652833 117.9375 127.0625 C114.42765042 125.13774378 110.53527143 125.02766143 107.125 127.1875 Z M18.6875 150.5625 C16.38145549 153.89345318 16.495042 156.0324729 17 160 C17.98048938 162.06402685 17.98048938 162.06402685 20 163 C23.37151684 163.4304064 25.30638669 163.37492611 28.3125 161.75 C30.26147148 159.72884439 30.83545339 158.79729233 31 156 C29.91970563 152.2189697 29.35693737 151.23795825 26 149 C22.74004462 148.4984684 21.44184346 148.70145712 18.6875 150.5625 Z M-42.75 156.625 C-45.27748876 158.83451989 -45.27748876 158.83451989 -45.4375 162.0625 C-45.18604438 165.18251805 -45.18604438 165.18251805 -43 168 C-39.57176115 168.91832511 -39.57176115 168.91832511 -36 169 C-32.88206338 167.37320673 -32.88206338 167.37320673 -32.34765625 164.94140625 C-32.06415297 162.57628984 -31.85182911 160.37945024 -32 158 C-33.5392464 155.78249092 -33.5392464 155.78249092 -36 155 C-39.95842116 154.66084713 -39.95842116 154.66084713 -42.75 156.625 Z M79 158 C78.71994942 159.91180549 78.71994942 159.91180549 78.8125 162 C78.81894531 162.70125 78.82539063 163.4025 78.83203125 164.125 C78.89293867 166.09056373 78.89293867 166.09056373 80 168 C83.44196878 168.77931369 85.99089078 169.34522158 89.375 168.1875 C91.15088244 167.08014273 91.15088244 167.08014273 92 165 C92.349104 160.90814871 92.349104 160.90814871 91 157.125 C87.15094644 154.95990737 82.20841497 154.79158503 79 158 Z M-14.0625 183.5625 C-15.40411569 187.0507008 -14.92678615 189.42525344 -14 193 C-10.51131349 195.32579101 -9.10281481 195.41865457 -5 195 C-2.51894806 194.09764165 -2.51894806 194.09764165 -1 192 C-0.57248872 188.57990979 -0.39681407 186.16867275 -2 183.0625 C-5.94018987 180.96927413 -10.47102558 180.84168604 -14.0625 183.5625 Z M51.125 182.25 C50.05389368 183.13208756 48.98115932 184.01884068 48 185 C47.59096936 189.64064337 47.59096936 189.64064337 49.0625 193.9375 C52.1652833 195.63902633 54.53769185 195.42519574 58 195 C60.6469872 193.60314994 60.6469872 193.60314994 62 191 C62.41349769 187.39418221 62.41349769 187.39418221 61 184 C57.21323712 181.52403966 55.39064377 180.39537227 51.125 182.25 Z " fill="#FDFDFD" transform="translate(82,4)"/>
<path d="M0 0 C2.40365601 1.88858687 4.54641589 3.82402481 6.625 6.0625 C6.68558594 5.42441406 6.74617187 4.78632812 6.80859375 4.12890625 C6.93427734 2.88947266 6.93427734 2.88947266 7.0625 1.625 C7.18431641 0.38943359 7.18431641 0.38943359 7.30859375 -0.87109375 C7.625 -2.9375 7.625 -2.9375 8.625 -3.9375 C10.17455559 -4.03649523 11.72853673 -4.06829524 13.28125 -4.0703125 C14.22097656 -4.07160156 15.16070313 -4.07289062 16.12890625 -4.07421875 C17.11761719 -4.07035156 18.10632813 -4.06648438 19.125 -4.0625 C20.60806641 -4.06830078 20.60806641 -4.06830078 22.12109375 -4.07421875 C23.53068359 -4.07228516 23.53068359 -4.07228516 24.96875 -4.0703125 C25.83693359 -4.06918457 26.70511719 -4.06805664 27.59960938 -4.06689453 C29.625 -3.9375 29.625 -3.9375 30.625 -2.9375 C30.7309412 -0.03270674 30.77177612 2.84843583 30.77026367 5.75390625 C30.77362228 6.66618484 30.7769809 7.57846344 30.78044128 8.51838684 C30.78998889 11.5539382 30.79189684 14.58943453 30.79296875 17.625 C30.79618063 19.73193383 30.79954465 21.83886743 30.80305481 23.94580078 C30.80905696 28.37451697 30.81089379 32.80321362 30.81030273 37.23193359 C30.81020149 42.89325586 30.82380939 48.55445164 30.84107494 54.21574402 C30.85222761 58.57391936 30.85422087 62.93206454 30.85369301 67.29025269 C30.85486991 69.37613355 30.85927534 71.46201528 30.86702538 73.54788208 C30.87688329 76.47732188 30.8739235 79.40649286 30.86791992 82.3359375 C30.87353943 83.19032913 30.87915894 84.04472076 30.88494873 84.92500305 C30.84536323 92.57194345 29.4834927 99.56406727 26.5 106.625 C26.14679688 107.47191406 25.79359375 108.31882812 25.4296875 109.19140625 C25.16414062 109.80886719 24.89859375 110.42632812 24.625 111.0625 C23.965 111.0625 23.305 111.0625 22.625 111.0625 C22.2228125 112.2690625 22.2228125 112.2690625 21.8125 113.5 C21.420625 114.345625 21.02875 115.19125 20.625 116.0625 C19.14 116.5575 19.14 116.5575 17.625 117.0625 C17.625 117.7225 17.625 118.3825 17.625 119.0625 C16.965 119.0625 16.305 119.0625 15.625 119.0625 C15.625 119.7225 15.625 120.3825 15.625 121.0625 C0.65271648 129.24323223 -15.15791316 131.67526575 -32 127.875 C-41.57020826 125.03739979 -49.97340624 120.09395847 -55.125 111.375 C-55.71796875 110.40175781 -56.3109375 109.42851562 -56.921875 108.42578125 C-58.70706084 104.29393984 -59.10836393 100.51993245 -59.375 96.0625 C-55.62558747 95.88817109 -51.87721491 95.78164159 -48.125 95.6875 C-47.06152344 95.63722656 -45.99804688 95.58695312 -44.90234375 95.53515625 C-41.94667988 95.47938901 -39.27687853 95.49105667 -36.375 96.0625 C-33.828125 98.9609375 -33.828125 98.9609375 -32.375 102.0625 C-31.385 102.7225 -30.395 103.3825 -29.375 104.0625 C-29.375 104.7225 -29.375 105.3825 -29.375 106.0625 C-20.64455541 108.6022657 -12.08048071 109.19384994 -3.375 106.0625 C1.09145303 103.25028883 3.46382208 100.5247391 5.09765625 95.44921875 C6.41304781 89.495854 7.48294385 82.97413952 5.625 77.0625 C4.82320312 77.68898438 4.02140625 78.31546875 3.1953125 78.9609375 C-6.05283571 85.77019598 -14.80994303 88.69598298 -26.375 88.0625 C-38.85103495 86.01128926 -48.36593983 79.68603474 -56.375 70.0625 C-64.50179773 57.28510703 -64.78765277 40.43468667 -62.15234375 26.0078125 C-60.85016218 21.07391851 -58.7075761 16.58520481 -56.375 12.0625 C-55.715 12.0625 -55.055 12.0625 -54.375 12.0625 C-54.1275 11.485 -53.88 10.9075 -53.625 10.3125 C-49.37878943 2.66932098 -41.44618297 -1.47014355 -33.375 -3.9375 C-32.77558594 -4.12957031 -32.17617188 -4.32164063 -31.55859375 -4.51953125 C-20.87258163 -6.56497543 -9.43932198 -5.41887003 0 0 Z M-34.375 23.0625 C-37.5762194 26.96293312 -38.99682121 31.05163108 -39.375 36.0625 C-39.44976563 36.95066406 -39.52453125 37.83882812 -39.6015625 38.75390625 C-40.04529495 47.89713026 -37.3753086 53.51364503 -32.4375 61 C-27.61711437 65.82038563 -22.20064798 66.77514597 -15.6875 67.4375 C-9.52136019 67.33259403 -4.19120354 64.38867232 0.48828125 60.5234375 C5.56874227 55.20345102 7.64772474 48.3281772 8 41.0625 C7.6865085 34.03744041 5.65672484 27.09422484 0.625 22.0625 C-0.07625 21.36125 -0.7775 20.66 -1.5 19.9375 C-12.89731983 12.50446533 -24.5154053 14.14275875 -34.375 23.0625 Z " fill="#FEFEFE" transform="translate(813.375,70.9375)"/>
<path d="M0 0 C0.91644287 0.00523682 1.83288574 0.01047363 2.77709961 0.01586914 C3.76645508 0.0190918 4.75581055 0.02231445 5.77514648 0.02563477 C6.81606445 0.03401367 7.85698242 0.04239258 8.92944336 0.05102539 C10.49662109 0.05779297 10.49662109 0.05779297 12.09545898 0.06469727 C14.68600996 0.07652627 17.27644895 0.0930085 19.86694336 0.11352539 C21.85989652 5.14283379 23.35131273 9.83020577 24.30444336 15.17602539 C25.25170128 20.24429789 26.37145058 25.20042107 27.74194336 30.17602539 C29.52440084 36.6840678 31.10706857 43.22443147 32.61694336 49.80102539 C32.83979004 50.75823486 33.06263672 51.71544434 33.29223633 52.70166016 C33.59991943 54.05602173 33.59991943 54.05602173 33.91381836 55.43774414 C34.09783203 56.24300537 34.2818457 57.0482666 34.47143555 57.87792969 C34.86694336 60.11352539 34.86694336 60.11352539 34.86694336 64.11352539 C35.52694336 64.11352539 36.18694336 64.11352539 36.86694336 64.11352539 C36.97651367 63.29110352 37.08608398 62.46868164 37.19897461 61.62133789 C38.08528073 55.38116633 39.21684532 49.4970798 41.14819336 43.50024414 C42.11779309 40.28054068 42.7183025 37.02841028 43.33959961 33.72680664 C43.90372581 30.9312479 44.59106042 28.18715001 45.30444336 25.42602539 C46.83992331 19.44695952 48.00207463 13.43145747 49.12084961 7.36352539 C49.86694336 4.11352539 49.86694336 4.11352539 51.86694336 0.11352539 C59.78694336 0.11352539 67.70694336 0.11352539 75.86694336 0.11352539 C78.07148068 4.52260003 79.28299111 7.07356427 80.18334961 11.63305664 C80.39024414 12.65592773 80.59713867 13.67879883 80.81030273 14.73266602 C81.01461914 15.78647461 81.21893555 16.8402832 81.42944336 17.92602539 C81.84691499 20.0159685 82.26487632 22.10581386 82.68334961 24.19555664 C82.98329834 25.70303467 82.98329834 25.70303467 83.28930664 27.2409668 C84.51670205 33.34474296 85.85881371 39.2136716 87.86694336 45.11352539 C88.62194319 47.8938642 89.3087101 50.68979954 89.99194336 53.48852539 C90.17370117 54.22458008 90.35545898 54.96063477 90.54272461 55.71899414 C90.98629897 57.51663762 91.42692602 59.31500793 91.86694336 61.11352539 C94.62384234 54.41239041 96.18666088 47.69246505 97.67944336 40.61352539 C99.71139505 31.22341628 101.84588058 21.87103442 104.17944336 12.55102539 C104.4337915 11.52879883 104.68813965 10.50657227 104.95019531 9.45336914 C106.73618418 2.37504375 106.73618418 2.37504375 107.86694336 0.11352539 C115.12694336 0.11352539 122.38694336 0.11352539 129.86694336 0.11352539 C128.62722354 8.79156413 126.78314211 16.58057995 123.94116211 24.86352539 C122.41154107 29.4913243 121.11878951 34.1787114 119.80444336 38.87133789 C119.04177108 41.50891285 118.2147309 44.08739521 117.30444336 46.67602539 C116.17589089 49.96070704 115.39256892 53.21489533 114.67944336 56.61352539 C113.11968478 63.66194795 110.94119877 70.49103391 108.74194336 77.36352539 C108.38076416 78.4959668 108.01958496 79.6284082 107.64746094 80.79516602 C104.99844045 88.9820283 104.99844045 88.9820283 103.86694336 90.11352539 C102.0862309 90.20078762 100.30211196 90.2205158 98.51928711 90.21118164 C97.43969727 90.20795898 96.36010742 90.20473633 95.24780273 90.20141602 C94.11149414 90.19303711 92.97518555 90.1846582 91.80444336 90.17602539 C90.66426758 90.17151367 89.5240918 90.16700195 88.34936523 90.16235352 C85.52183985 90.15052287 82.69441696 90.13403949 79.86694336 90.11352539 C79.66705811 89.57663086 79.46717285 89.03973633 79.26123047 88.48657227 C78.99576416 87.7756543 78.73029785 87.06473633 78.45678711 86.33227539 C78.19502686 85.63038086 77.9332666 84.92848633 77.66357422 84.20532227 C76.9492129 82.32954912 76.19201508 80.47022175 75.42944336 78.61352539 C71.64581003 68.50413009 69.70407756 57.54761014 67.26171875 47.04931641 C66.17763676 42.39146282 65.03658187 37.75067629 63.86694336 33.11352539 C63.69155029 33.77545898 63.51615723 34.43739258 63.33544922 35.11938477 C59.29935266 50.31717758 55.09635932 65.45254922 50.62548828 80.52832031 C49.68941092 83.7185756 48.78032272 86.91669763 47.86694336 90.11352539 C39.61694336 90.11352539 31.36694336 90.11352539 22.86694336 90.11352539 C20.16992623 82.75139756 17.55211295 75.51618098 15.64038086 67.90649414 C14.99531748 65.57709862 14.26794321 63.32753216 13.48413086 61.04321289 C11.59737006 55.44829038 10.1168082 49.75953675 8.61694336 44.05102539 C5.92494498 33.90980597 3.08317086 23.82359343 0.08862305 13.76757812 C-0.18820312 12.83373291 -0.4650293 11.8998877 -0.75024414 10.93774414 C-0.99371582 10.12394287 -1.2371875 9.3101416 -1.48803711 8.47167969 C-2.157377 6.02461155 -2.74365834 3.62132626 -3.13305664 1.11352539 C-2.13305664 0.11352539 -2.13305664 0.11352539 0 0 Z " fill="#FEFEFE" transform="translate(506.133056640625,66.886474609375)"/>
<path d="M0 0 C2.33525647 1.87210539 4.47550549 3.85556528 6.5625 6 C6.541875 4.72125 6.52125 3.4425 6.5 2.125 C6.4375 -1.75 6.4375 -1.75 7.5625 -4 C10.38661765 -4.94137255 12.09168032 -5.11725382 15.01171875 -5.09765625 C15.85927734 -5.09443359 16.70683594 -5.09121094 17.58007812 -5.08789062 C18.46115234 -5.07951172 19.34222656 -5.07113281 20.25 -5.0625 C21.14267578 -5.05798828 22.03535156 -5.05347656 22.95507812 -5.04882812 C25.15761987 -5.03704983 27.36002599 -5.02060164 29.5625 -5 C32.05837781 -1.20252699 31.8379217 2.64724339 31.80541992 7.02563477 C31.80731827 7.83094635 31.80921661 8.63625793 31.81117249 9.4659729 C31.81487341 12.12455011 31.80418627 14.78285337 31.79296875 17.44140625 C31.7917765 19.28938261 31.79132388 21.13735958 31.7915802 22.9853363 C31.79001654 26.8563924 31.78173535 30.72735587 31.76831055 34.59838867 C31.75130905 39.56404644 31.74749663 44.52960252 31.74825573 49.49528599 C31.74798402 53.31020582 31.7425029 57.12510337 31.73525429 60.94001579 C31.73206914 62.77127857 31.73010057 64.60254388 31.72936058 66.43380928 C31.72719607 68.99050337 31.71844971 71.54708894 31.70776367 74.10375977 C31.70821686 74.86280106 31.70867004 75.62184235 31.70913696 76.40388489 C31.68994452 79.53911892 31.56165779 82.00252664 30.5625 85 C22.9725 85 15.3825 85 7.5625 85 C6.89547276 80.99783658 6.44698577 77.92748389 6.5625 74 C5.634375 74.763125 4.70625 75.52625 3.75 76.3125 C3.22792969 76.74175781 2.70585938 77.17101562 2.16796875 77.61328125 C0.53826772 78.95868263 0.53826772 78.95868263 -0.796875 80.53515625 C-6.2304797 85.38658902 -16.0162638 86.8351391 -23.08984375 87.2265625 C-32.7161635 86.57507295 -42.80025873 83.53941891 -50.28515625 77.33203125 C-51.4375 76 -51.4375 76 -51.4375 74 C-52.03433594 73.76410156 -52.63117188 73.52820313 -53.24609375 73.28515625 C-59.16508377 69.8139482 -61.94708893 61.39629758 -63.89453125 55.10546875 C-67.47660428 41.2152719 -66.12842684 27.39154087 -59.25 14.8125 C-52.74227869 4.30212165 -45.30972194 -1.1980227 -33.75 -5.3125 C-22.23597734 -7.74142162 -9.66469924 -7.03842228 0 0 Z M-34.4375 21 C-40.00366494 28.19285727 -41.33082631 35.5418423 -40.97265625 44.49609375 C-40.21328147 49.46805854 -38.40755197 53.00393008 -35.4375 57 C-34.7775 57.99 -34.1175 58.98 -33.4375 60 C-32.7775 60 -32.1175 60 -31.4375 60 C-31.4375 60.66 -31.4375 61.32 -31.4375 62 C-23.77401808 65.20863542 -17.01797383 67.9166977 -8.8671875 65.1171875 C-2.10584618 62.06953813 2.23130548 58.10734272 5.875 51.6875 C8.2471296 42.41462975 8.1638352 33.33263231 3.5625 24.75 C-0.23266902 19.19801683 -6.17499434 15.99872622 -12.5 14.0625 C-21.1007391 13.87950555 -27.76857298 15.10967867 -34.4375 21 Z " fill="#FEFEFE" transform="translate(1141.4375,72)"/>
<path d="M0 0 C6.25081811 6.77738159 8 13.93403561 8 23 C-0.25 23 -8.5 23 -17 23 C-18.65 20.03 -20.3 17.06 -22 14 C-26.51413692 10.92654507 -31.05105424 9.44159243 -36.49609375 10.47265625 C-41.61196772 11.73933393 -41.61196772 11.73933393 -45.765625 14.8046875 C-47.96920765 18.72371741 -47.85479748 22.65536818 -47 27 C-44.86071527 29.46017744 -43.7204365 30.49775093 -41 32 C-40.40977051 32.33040283 -39.81954102 32.66080566 -39.21142578 33.0012207 C-34.36517803 35.53070426 -29.67152624 37.03284906 -24.375 38.3125 C-13.88052811 41.0463083 -3.34883741 44.63237737 4 53 C4 53.66 4 54.32 4 55 C4.66 55 5.32 55 6 55 C10.88933558 62.85786075 10.88671023 71.07804962 10 80 C7.94493455 88.56074603 1.39209442 96.09662204 -5.87109375 100.90625 C-19.53181155 107.92460043 -34.51099322 108.30125067 -49 104 C-58.45796104 100.34993558 -66.31960927 95.95313893 -70.875 86.6875 C-72.94597105 81.73074962 -73.73698868 77.34789676 -74 72 C-65.2478303 70.63247348 -56.77387981 71.29242905 -48 72 C-47.5875 73.2375 -47.175 74.475 -46.75 75.75 C-45.04470717 80.26026049 -43.15278787 82.93477971 -38.7421875 85.1171875 C-35.56531831 86.13994026 -33.31163536 86.07102588 -30 85.75 C-28.989375 85.66234375 -27.97875 85.5746875 -26.9375 85.484375 C-23.15351985 84.86042083 -20.1132284 83.95967966 -17.1875 81.4375 C-15.38665698 77.74103274 -15.30645227 74.03209609 -16 70 C-17.78736746 65.68929025 -20.0447499 64.11210174 -24.29174805 62.27514648 C-24.97922119 61.99872314 -25.66669434 61.7222998 -26.375 61.4375 C-27.08889893 61.137229 -27.80279785 60.83695801 -28.53833008 60.52758789 C-33.86637486 58.33382672 -39.27567059 56.63090095 -44.8125 55.0390625 C-51.13265787 52.97881496 -57.06397902 49.96801049 -63 47 C-63 46.34 -63 45.68 -63 45 C-63.99 44.67 -64.98 44.34 -66 44 C-72.25741936 37.61520315 -74.00943292 31.26658644 -74.3125 22.5625 C-74.23144065 17.28627337 -73.01199002 12.85033308 -71 8 C-70.34 8 -69.68 8 -69 8 C-68.91363281 7.2575 -68.82726562 6.515 -68.73828125 5.75 C-67.37052523 0.65528973 -63.17163256 -2.05005983 -59 -5 C-41.12609742 -14.5218303 -15.60810049 -14.00827019 0 0 Z " fill="#FEFEFE" transform="translate(319,52)"/>
<path d="M0 0 C2.11472249 0.66229354 2.11472249 0.66229354 4 1 C3.979375 -0.134375 3.95875 -1.26875 3.9375 -2.4375 C4 -6 4 -6 5 -7 C6.63472882 -7.08700342 8.27314055 -7.10701063 9.91015625 -7.09765625 C10.89951172 -7.09443359 11.88886719 -7.09121094 12.90820312 -7.08789062 C13.94912109 -7.07951172 14.99003906 -7.07113281 16.0625 -7.0625 C17.62967773 -7.05573242 17.62967773 -7.05573242 19.22851562 -7.04882812 C21.8190666 -7.03699913 24.40950559 -7.02051689 27 -7 C28.3432986 -2.99172778 28.09849251 1.07140795 28.03759766 5.2409668 C28.02559578 6.48301376 28.02559578 6.48301376 28.01335144 7.75015259 C27.98550116 10.48326017 27.950018 13.21620666 27.9140625 15.94921875 C27.89229356 17.8468236 27.870844 19.74443214 27.84970093 21.64204407 C27.80423034 25.61565993 27.75500471 29.58920694 27.703125 33.56274414 C27.63676177 38.66751359 27.57954877 43.77233716 27.52509499 48.8772459 C27.48235707 52.7933463 27.434908 56.70937852 27.38599777 60.62540627 C27.36303363 62.5085461 27.34153237 64.39170434 27.32149124 66.27487755 C27.29283866 68.89907782 27.25788748 71.52311839 27.22119141 74.1472168 C27.2138649 74.93215012 27.20653839 75.71708344 27.19898987 76.52580261 C27.11427762 81.88572238 27.11427762 81.88572238 26 83 C24.36527118 83.08700342 22.72685945 83.10701063 21.08984375 83.09765625 C20.10048828 83.09443359 19.11113281 83.09121094 18.09179688 83.08789062 C17.05087891 83.07951172 16.00996094 83.07113281 14.9375 83.0625 C13.89271484 83.05798828 12.84792969 83.05347656 11.77148438 83.04882812 C9.1809334 83.03699913 6.59049441 83.02051689 4 83 C3.23713764 79.59254812 2.88332721 77.35001838 4 74 C0.78801767 75.07066078 -1.31694043 76.25091117 -4 78.375 C-11.00192541 83.53834543 -20.39166492 85.82766565 -29 85 C-31.77951497 84.43956826 -34.43383698 83.63668377 -37.125 82.75 C-37.80175781 82.54503906 -38.47851562 82.34007812 -39.17578125 82.12890625 C-43.67332226 80.69352082 -47.26456144 78.90922006 -51 76 C-51 75.34 -51 74.68 -51 74 C-51.66 74 -52.32 74 -53 74 C-61.93591481 65.06408519 -66.81882123 53.19168445 -67.25 40.6875 C-67.02365106 32.19186964 -65.94482014 23.59743137 -62 16 C-61.61585938 15.26007813 -61.23171875 14.52015625 -60.8359375 13.7578125 C-55.66000892 4.07279276 -49.04406276 -2.59031942 -38.7421875 -6.95703125 C-24.94612196 -10.6027596 -11.21199797 -8.52111846 0 0 Z M-37 20 C-42.00553064 26.07642541 -43.6149644 32.38445023 -43.3359375 40.1328125 C-42.29714746 48.99876468 -39.22633194 54.89792131 -32.2265625 60.47265625 C-26.87362047 64.14458666 -21.34669876 64.84692356 -15 64 C-7.16011399 61.64166031 -2.29643199 57.57331468 1.8125 50.5 C5.07748438 43.55674208 5.15116266 36.50667934 3.265625 29.125 C0.74066321 22.17100688 -2.64360839 17.97283944 -9.375 14.75 C-20.20611297 10.34594415 -28.57457473 12.19106926 -37 20 Z " fill="#FEFEFE" transform="translate(708,74)"/>
<path d="M0 0 C1.07652832 0.0012085 1.07652832 0.0012085 2.17480469 0.00244141 C9.08121462 0.08202272 15.17062949 0.92059694 21.375 4.1875 C21.375 4.8475 21.375 5.5075 21.375 6.1875 C21.9525 6.435 22.53 6.6825 23.125 6.9375 C25.6752997 8.35433317 27.39285701 10.06377537 29.375 12.1875 C29.354375 10.929375 29.33375 9.67125 29.3125 8.375 C29.26613917 5.54698913 29.45807039 3.93828884 30.375 1.1875 C37.635 1.1875 44.895 1.1875 52.375 1.1875 C53.42066856 5.37017424 53.51548993 9.15930513 53.50439453 13.4284668 C53.50702301 14.67051376 53.50702301 14.67051376 53.50970459 15.93765259 C53.51410107 18.67069604 53.51119367 21.40367466 53.5078125 24.13671875 C53.50848598 26.03432732 53.50945637 27.9319358 53.51071167 29.82954407 C53.51218549 33.80311913 53.51004348 37.77667169 53.50537109 41.75024414 C53.49966234 46.85509618 53.50296205 51.95989577 53.50894356 57.0647459 C53.51254774 60.98080342 53.51141145 64.89684838 53.50881577 68.81290627 C53.5081467 70.69606342 53.5089742 72.5792217 53.51129532 74.46237755 C53.51382076 77.08652162 53.50998334 79.71057921 53.50439453 82.3347168 C53.50641876 83.11965012 53.50844299 83.90458344 53.51052856 84.71330261 C53.48926502 90.07323498 53.48926502 90.07323498 52.375 91.1875 C50.74027118 91.27450342 49.10185945 91.29451063 47.46484375 91.28515625 C46.47548828 91.28193359 45.48613281 91.27871094 44.46679688 91.27539062 C43.42587891 91.26701172 42.38496094 91.25863281 41.3125 91.25 C40.26771484 91.24548828 39.22292969 91.24097656 38.14648438 91.23632812 C35.5559334 91.22449913 32.96549441 91.20801689 30.375 91.1875 C29.32797814 87.4610915 29.30057943 84.05736958 29.375 80.1875 C28.69179688 80.93515625 28.00859375 81.6828125 27.3046875 82.453125 C24.38341637 85.36822878 21.20535312 87.10509343 17.5 88.9375 C15.74042969 89.82695312 15.74042969 89.82695312 13.9453125 90.734375 C4.76198788 94.47200822 -5.71072242 93.57914453 -14.83203125 89.890625 C-17.54482949 88.45072662 -20.08659959 86.914303 -22.625 85.1875 C-23.21796875 84.795625 -23.8109375 84.40375 -24.421875 84 C-34.11307278 76.8065336 -38.59595351 63.63158069 -40.625 52.1875 C-40.82721638 49.10489175 -40.73880647 46.08236691 -40.5625 43 C-40.51939697 42.17717529 -40.47629395 41.35435059 -40.43188477 40.5065918 C-39.89252722 33.07359327 -37.89593644 26.91042103 -34.625 20.1875 C-33.965 20.1875 -33.305 20.1875 -32.625 20.1875 C-32.625 19.1975 -32.625 18.2075 -32.625 17.1875 C-31.965 17.1875 -31.305 17.1875 -30.625 17.1875 C-30.46 16.506875 -30.295 15.82625 -30.125 15.125 C-26.11986704 7.28161462 -18.64969569 3.8386428 -10.625 1.1875 C-7.03545748 -0.00901417 -3.73765452 -0.00428827 0 0 Z M-9.5625 26.4375 C-14.9397007 33.60710093 -17.72761153 41.121583 -16.625 50.1875 C-14.4674276 58.44255962 -11.56418533 64.97975371 -4.0625 69.5 C2.30961452 72.62812894 8.11645916 73.2165129 14.9375 71.0625 C21.82678768 67.30470672 25.75378649 63.77522333 28.375 56.1875 C28.9628125 55.011875 28.9628125 55.011875 29.5625 53.8125 C32.03207708 45.83386635 30.14597852 37.47603106 26.375 30.1875 C21.6148354 24.78947335 15.39832445 21.59753646 8.375 20.1875 C1.78490931 20.1875 -4.32939096 22.42916116 -9.5625 26.4375 Z " fill="#FEFEFE" transform="translate(380.625,65.8125)"/>
<path d="M0 0 C2.30664062 -0.35644531 2.30664062 -0.35644531 5.15625 -0.328125 C6.68958984 -0.32039063 6.68958984 -0.32039063 8.25390625 -0.3125 C9.32511719 -0.291875 10.39632812 -0.27125 11.5 -0.25 C12.57121094 -0.24484375 13.64242187 -0.2396875 14.74609375 -0.234375 C22.6915621 -0.15421895 22.6915621 -0.15421895 25 1 C25.88354492 2.84350586 25.88354492 2.84350586 26.79296875 5.27734375 C28.31433234 9.23795325 29.89074932 13.16164981 31.55078125 17.06640625 C31.99881104 18.12126221 32.44684082 19.17611816 32.90844727 20.26293945 C33.37178467 21.35179443 33.83512207 22.44064941 34.3125 23.5625 C39.30785261 35.33409894 44.27010445 47.11868342 49 59 C54.27191894 48.82588111 58.98223212 38.5626765 63.23144531 27.921875 C73.32938188 2.67061812 73.32938188 2.67061812 76 0 C77.78071246 -0.08726223 79.5648314 -0.10699041 81.34765625 -0.09765625 C82.42724609 -0.09443359 83.50683594 -0.09121094 84.61914062 -0.08789062 C86.32360352 -0.07532227 86.32360352 -0.07532227 88.0625 -0.0625 C89.77276367 -0.05573242 89.77276367 -0.05573242 91.51757812 -0.04882812 C94.34510351 -0.03699747 97.1725264 -0.0205141 100 0 C99.5156391 6.52093283 97.14341651 11.69004008 94.375 17.5625 C93.92278076 18.53977051 93.47056152 19.51704102 93.00463867 20.52392578 C90.01631199 26.946044 86.88841643 33.28320206 83.671875 39.59375 C80.54848932 45.95728344 77.78466239 52.48270504 75 59 C74.34 59 73.68 59 73 59 C72.87044922 59.95132813 72.87044922 59.95132813 72.73828125 60.921875 C71.70151986 65.24445689 69.9441433 69.17560773 68.1875 73.25 C67.84396484 74.05824219 67.50042969 74.86648437 67.14648438 75.69921875 C66.10702378 78.13697812 65.05632993 80.56950636 64 83 C63.49847412 84.15532227 63.49847412 84.15532227 62.98681641 85.33398438 C61.11576762 89.59759676 59.14036126 93.78412903 57.03564453 97.93701172 C55.10572284 101.78138662 53.27753864 105.67452628 51.4375 109.5625 C51.05142578 110.37396484 50.66535156 111.18542969 50.26757812 112.02148438 C46.28007662 120.28153343 46.28007662 120.28153343 43.125 128.875 C42.75375 129.57625 42.3825 130.2775 42 131 C38.68843693 131.91573655 35.55879661 132.11973417 32.13671875 132.09765625 C31.25048828 132.09443359 30.36425781 132.09121094 29.45117188 132.08789062 C28.53916016 132.07951172 27.62714844 132.07113281 26.6875 132.0625 C25.75615234 132.05798828 24.82480469 132.05347656 23.86523438 132.04882812 C21.57675627 132.03709234 19.28841192 132.02067363 17 132 C17.61364104 128.2631319 18.68731266 125.17812823 20.29296875 121.75390625 C20.75606445 120.75794434 21.21916016 119.76198242 21.69628906 118.73583984 C22.18838867 117.6886377 22.68048828 116.64143555 23.1875 115.5625 C24.18702048 113.40011961 25.18572255 111.23736073 26.18359375 109.07421875 C27.49137325 106.24978134 28.80024622 103.42603123 30.12158203 100.60791016 C31.01190024 98.70301222 31.88385907 96.79097603 32.75 94.875 C33.45382812 93.35519531 33.45382812 93.35519531 34.171875 91.8046875 C35.85740007 86.09616393 33.5443069 81.52499993 31.1875 76.3125 C30.55596688 74.90365601 29.92445844 73.49480096 29.29296875 72.0859375 C28.93509277 71.29413086 28.5772168 70.50232422 28.20849609 69.68652344 C26.8301124 66.62233471 25.4708415 63.55003279 24.11328125 60.4765625 C18.86112983 48.59326822 13.56807299 36.73880799 8 25 C6.92236674 22.72335311 5.84572062 20.44624814 4.77050781 18.16845703 C4.0696598 16.68428971 3.36728614 15.20084145 2.66308594 13.71826172 C2.0394543 12.39928397 1.42139166 11.07765253 0.81005859 9.75292969 C0.10448477 8.22610025 -0.62358259 6.70970519 -1.35546875 5.1953125 C-1.56816406 4.47085938 -1.78085937 3.74640625 -2 3 C-1.34 2.01 -0.68 1.02 0 0 Z " fill="#FEFEFE" transform="translate(856,67)"/>
<path d="M0 0 C0 0.66 0 1.32 0 2 C0.99 2 1.98 2 3 2 C4.3927289 3.61736259 5.71937515 5.2925002 7 7 C7.64630371 7.58507324 8.29260742 8.17014648 8.95849609 8.77294922 C19.80698147 20.60742465 16.58349183 42.28591788 16.375 56.875 C16.36010287 58.90931322 16.35011587 60.9436017 16.34119225 62.97794914 C16.31578702 68.55299118 16.27358344 74.12812088 16.19287109 79.70263672 C16.18001068 80.68029999 16.16715027 81.65796326 16.15390015 82.66525269 C16 85 16 85 15 87 C11.35418313 87.02887512 7.70839537 87.04675585 4.0625 87.0625 C3.02158203 87.07087891 1.98066406 87.07925781 0.90820312 87.08789062 C-0.08115234 87.09111328 -1.07050781 87.09433594 -2.08984375 87.09765625 C-3.46450806 87.10551147 -3.46450806 87.10551147 -4.86694336 87.11352539 C-7 87 -7 87 -8 86 C-8.11242624 84.39620473 -8.15676434 82.78757465 -8.17358398 81.17993164 C-8.18707382 80.15118423 -8.20056366 79.12243683 -8.21446228 78.06251526 C-8.22490067 76.93973679 -8.23533905 75.81695831 -8.24609375 74.66015625 C-8.27906112 72.2936165 -8.31227223 69.92708013 -8.34570312 67.56054688 C-8.39292677 63.82155949 -8.43728774 60.08258287 -8.47680664 56.34350586 C-8.51679407 52.74056702 -8.56830573 49.13792721 -8.62109375 45.53515625 C-8.6295079 44.43059586 -8.63792206 43.32603546 -8.64659119 42.18800354 C-8.75068398 35.57592246 -9.4386522 29.4297829 -11 23 C-11.66 23 -12.32 23 -13 23 C-13.5775 22.38125 -14.155 21.7625 -14.75 21.125 C-18.17126445 17.89380579 -21.55337053 17.05266855 -26.21875 16.8828125 C-34.12045228 17.46603338 -38.41402995 18.61325051 -44.25 24.125 C-48.59102226 31.25667943 -48.27302674 40.0428548 -48.16015625 48.15234375 C-48.15495468 49.17429337 -48.14975311 50.19624298 -48.14439392 51.24916077 C-48.12673824 54.47875927 -48.0955597 57.70802549 -48.0625 60.9375 C-48.03485282 64.19193404 -48.01017857 67.44632381 -47.99131775 70.70082092 C-47.97908506 72.71749421 -47.96150538 74.73414372 -47.93800354 76.75071716 C-47.93147263 77.659189 -47.92494171 78.56766083 -47.91821289 79.50366211 C-47.90995987 80.30178818 -47.90170685 81.09991425 -47.89320374 81.92222595 C-48 84 -48 84 -49 87 C-52.64581687 87.02887512 -56.29160463 87.04675585 -59.9375 87.0625 C-61.49887695 87.07506836 -61.49887695 87.07506836 -63.09179688 87.08789062 C-64.08115234 87.09111328 -65.07050781 87.09433594 -66.08984375 87.09765625 C-67.46450806 87.10551147 -67.46450806 87.10551147 -68.86694336 87.11352539 C-71 87 -71 87 -72 86 C-72.10048523 83.26649252 -72.13616261 80.55822108 -72.12939453 77.82421875 C-72.13114685 76.96736481 -72.13289917 76.11051086 -72.13470459 75.22769165 C-72.13912417 72.3809408 -72.13618475 69.53425153 -72.1328125 66.6875 C-72.13348551 64.71834298 -72.13445551 62.74918603 -72.13571167 60.7800293 C-72.13718879 56.64729015 -72.13503364 52.51457258 -72.13037109 48.38183594 C-72.1246738 43.07175479 -72.12795273 37.76172419 -72.13394356 32.4516449 C-72.1375488 28.38374447 -72.13641076 24.31585611 -72.13381577 20.24795532 C-72.13314639 18.28943882 -72.13397527 16.33092124 -72.13629532 14.37240601 C-72.13882124 11.640168 -72.13498211 8.90801303 -72.12939453 6.17578125 C-72.13141876 5.35808258 -72.13344299 4.54038391 -72.13552856 3.69790649 C-72.11426246 -1.88573754 -72.11426246 -1.88573754 -71 -3 C-69.36527118 -3.08700342 -67.72685945 -3.10701063 -66.08984375 -3.09765625 C-65.10048828 -3.09443359 -64.11113281 -3.09121094 -63.09179688 -3.08789062 C-62.05087891 -3.07951172 -61.00996094 -3.07113281 -59.9375 -3.0625 C-58.37032227 -3.05573242 -58.37032227 -3.05573242 -56.77148438 -3.04882812 C-54.1809334 -3.03699913 -51.59049441 -3.02051689 -49 -3 C-48.05685873 0.41610225 -47.91934883 3.45134864 -48 7 C-47.50371094 6.52949219 -47.00742187 6.05898437 -46.49609375 5.57421875 C-33.36688939 -6.45880915 -15.97231403 -6.77613323 0 0 Z " fill="#FEFEFE" transform="translate(1044,70)"/>
<path d="M0 0 C0 7.92 0 15.84 0 24 C-7.1875 24.875 -7.1875 24.875 -9.42260742 25.13623047 C-16.08489756 25.85627709 -16.08489756 25.85627709 -21.328125 29.5859375 C-21.63234375 30.17632812 -21.9365625 30.76671875 -22.25 31.375 C-22.56453125 31.96023437 -22.8790625 32.54546875 -23.203125 33.1484375 C-28.12914386 44.59418721 -26.1003148 60.06812351 -26 72.3125 C-25.97346318 75.64192313 -25.95352714 78.97129302 -25.9375 82.30078125 C-25.92920166 83.06103104 -25.92090332 83.82128082 -25.91235352 84.60456848 C-25.90381082 86.40326265 -25.94659771 88.20207845 -26 90 C-27.65394117 91.65394117 -29.60315413 91.12999683 -31.875 91.1328125 C-32.85984375 91.13410156 -33.8446875 91.13539063 -34.859375 91.13671875 C-35.89578125 91.13285156 -36.9321875 91.12898438 -38 91.125 C-39.55460937 91.13080078 -39.55460937 91.13080078 -41.140625 91.13671875 C-42.12546875 91.13542969 -43.1103125 91.13414062 -44.125 91.1328125 C-45.03507812 91.13168457 -45.94515625 91.13055664 -46.8828125 91.12939453 C-49 91 -49 91 -50 90 C-50.10046992 87.30227029 -50.13616448 84.63011347 -50.12939453 81.93188477 C-50.13114685 81.08639069 -50.13289917 80.24089661 -50.13470459 79.36978149 C-50.13912458 76.56030252 -50.13618434 73.75088593 -50.1328125 70.94140625 C-50.13348556 68.9970651 -50.1344556 67.05272404 -50.13571167 65.10838318 C-50.13718889 61.02691855 -50.13503354 56.94547577 -50.13037109 52.86401367 C-50.12467757 47.62353302 -50.12795027 42.38310362 -50.13394356 37.14262486 C-50.13755173 33.12529614 -50.13640933 29.10797964 -50.13381577 25.09065056 C-50.13314701 23.15808036 -50.13397313 21.22550906 -50.13629532 19.29294014 C-50.13882561 16.59443335 -50.13497571 13.89601029 -50.12939453 11.19750977 C-50.13141876 10.39275711 -50.13344299 9.58800446 -50.13552856 8.75886536 C-50.11426329 3.22852658 -50.11426329 3.22852658 -49 1 C-41.74 1 -34.48 1 -27 1 C-26.10305206 4.58779175 -25.91695883 7.34618837 -26 11 C-25.29875 10.45730469 -24.5975 9.91460937 -23.875 9.35546875 C-15.64189582 3.14708176 -10.58539438 0 0 0 Z " fill="#FEFEFE" transform="translate(499,66)"/>
<path d="M0 0 C1.23556641 0.01740234 1.23556641 0.01740234 2.49609375 0.03515625 C3.32238281 0.04417969 4.14867187 0.05320313 5 0.0625 C5.63808594 0.07410156 6.27617188 0.08570313 6.93359375 0.09765625 C6.60359375 2.40765625 6.27359375 4.71765625 5.93359375 7.09765625 C7.91359375 7.09765625 9.89359375 7.09765625 11.93359375 7.09765625 C11.93359375 9.40765625 11.93359375 11.71765625 11.93359375 14.09765625 C11.2890625 14.31164062 10.64453125 14.525625 9.98046875 14.74609375 C7.6552026 15.94500855 7.6552026 15.94500855 7.32421875 18.69921875 C7.2778125 19.69695312 7.23140625 20.6946875 7.18359375 21.72265625 C7.09851562 23.22699219 7.09851562 23.22699219 7.01171875 24.76171875 C6.97304687 25.91800781 6.97304687 25.91800781 6.93359375 27.09765625 C8.58359375 27.09765625 10.23359375 27.09765625 11.93359375 27.09765625 C13.36447903 29.95942682 12.53351072 32.03141398 11.93359375 35.09765625 C2.64489082 35.40727968 2.64489082 35.40727968 -0.06640625 33.09765625 C-3.56979695 27.21696471 -3.39432852 21.8139901 -3.06640625 15.09765625 C-4.05640625 15.09765625 -5.04640625 15.09765625 -6.06640625 15.09765625 C-6.39640625 13.44765625 -6.72640625 11.79765625 -7.06640625 10.09765625 C-7.453125 11.14824219 -7.83984375 12.19882813 -8.23828125 13.28125 C-10.97065003 20.66128144 -13.75010606 27.95485584 -17.06640625 35.09765625 C-20.69640625 35.09765625 -24.32640625 35.09765625 -28.06640625 35.09765625 C-29.49483536 31.43312773 -30.91888301 27.76693056 -32.33886719 24.09912109 C-33.06082472 22.2370521 -33.78625863 20.37633218 -34.51171875 18.515625 C-34.96289062 17.34902344 -35.4140625 16.18242187 -35.87890625 14.98046875 C-36.29785156 13.90168457 -36.71679688 12.82290039 -37.1484375 11.71142578 C-38.06640625 9.09765625 -38.06640625 9.09765625 -38.06640625 7.09765625 C-34.76640625 7.09765625 -31.46640625 7.09765625 -28.06640625 7.09765625 C-26.30585751 11.73910294 -24.60113593 16.37541109 -23.06640625 21.09765625 C-19.95077203 17.98202203 -19.44349214 13.92593035 -18.26171875 9.75 C-17.06640625 7.09765625 -17.06640625 7.09765625 -15.26171875 6.19921875 C-12.72095876 6.08167469 -10.34291936 6.23596391 -7.81640625 6.53515625 C-6.924375 6.63699219 -6.03234375 6.73882812 -5.11328125 6.84375 C-4.4378125 6.92753906 -3.76234375 7.01132813 -3.06640625 7.09765625 C-3.08703125 6.12828125 -3.10765625 5.15890625 -3.12890625 4.16015625 C-3.04694378 0.14399545 -3.04694378 0.14399545 0 0 Z " fill="#FDFDFD" transform="translate(1054.06640625,176.90234375)"/>
<path d="M0 0 C0.88392076 8.85280636 1.04933729 17.48820816 0.625 26.375 C0.56034546 27.77528442 0.56034546 27.77528442 0.49438477 29.20385742 C0.13281863 35.86718137 0.13281863 35.86718137 -1 37 C-6.73611111 37.27314815 -6.73611111 37.27314815 -9 37 C-9.66 36.34 -10.32 35.68 -11 35 C-11.99 35.66 -12.98 36.32 -14 37 C-18.89584193 37.65277892 -21.84708664 37.60801533 -25.875 34.625 C-29.24230861 31.35036961 -30.34966547 28.13403439 -30.98046875 23.53125 C-31.02179435 18.17545168 -29.35213415 14.50666377 -25.8125 10.5625 C-22.21491296 8.56384053 -19.10734226 7.89234788 -15 8 C-12 8.9375 -12 8.9375 -10 10 C-10 6.7 -10 3.4 -10 0 C-6.26432828 -0.76411467 -3.65188082 -1.07174763 0 0 Z M-19 18 C-19 18.66 -19 19.32 -19 20 C-19.66 20 -20.32 20 -21 20 C-21.32231207 24.14984647 -21.32231207 24.14984647 -19.875 27.9375 C-17.91444384 29.26649983 -17.91444384 29.26649983 -14.9375 28.875 C-11.70744585 28.25349587 -11.70744585 28.25349587 -10 25 C-10.0931435 20.65829096 -10.0931435 20.65829096 -12 17 C-15.63194641 16.80850919 -15.63194641 16.80850919 -19 18 Z " fill="#FDFDFD" transform="translate(1155,175)"/>
<path d="M0 0 C3.20784721 -0.14622024 6.41482961 -0.23436651 9.625 -0.3125 C10.98044922 -0.3753418 10.98044922 -0.3753418 12.36328125 -0.43945312 C16.85913464 -0.52149425 20.00442325 -0.52013202 23.5859375 2.39453125 C27.16524889 6.25763918 27.34262141 8.63599758 27.28515625 13.7421875 C26.85933373 17.11376856 25.46522826 18.74020743 23 21 C19.32691965 23.75481027 15.40628062 23.21320713 11 23 C10.34 22.67 9.68 22.34 9 22 C9 26.29 9 30.58 9 35 C6.03 35 3.06 35 0 35 C-1.62823007 23.3518926 -0.6553773 11.69276323 0 0 Z M10 8 C9.67 10.31 9.34 12.62 9 15 C11.31 15 13.62 15 16 15 C16.66 13.68 17.32 12.36 18 11 C17.34 10.01 16.68 9.02 16 8 C12.91634129 7.7497843 12.91634129 7.7497843 10 8 Z " fill="#FDFDFD" transform="translate(988,177)"/>
<path d="M0 0 C3.3 0 6.6 0 10 0 C10 2.31 10 4.62 10 7 C11.98 7 13.96 7 16 7 C16.98120464 10.05263664 16.98120464 11.94736336 16 15 C14.02 15 12.04 15 10 15 C10.33 18.63 10.66 22.26 11 26 C12.65 26.33 14.3 26.66 16 27 C16 29.64 16 32.28 16 35 C6.07794677 35.58365019 6.07794677 35.58365019 2 32 C0.04434501 28.12957479 -0.21958095 24.9909333 -0.125 20.6875 C-0.09792969 19.08455078 -0.09792969 19.08455078 -0.0703125 17.44921875 C-0.03550781 16.23685547 -0.03550781 16.23685547 0 15 C-0.99 15 -1.98 15 -3 15 C-3 12.36 -3 9.72 -3 7 C-2.01 7 -1.02 7 0 7 C0 4.69 0 2.38 0 0 Z " fill="#FDFDFD" transform="translate(1107,177)"/>
<path d="M0 0 C3.3 0 6.6 0 10 0 C10 8.91 10 17.82 10 27 C13.3 26.67 16.6 26.34 20 26 C21 27 21 27 21.09765625 28.84765625 C21.06510417 30.8984375 21.03255208 32.94921875 21 35 C17.68751813 35.02888146 14.37506833 35.04675799 11.0625 35.0625 C10.11697266 35.07087891 9.17144531 35.07925781 8.19726562 35.08789062 C6.84858398 35.09272461 6.84858398 35.09272461 5.47265625 35.09765625 C4.22367554 35.10551147 4.22367554 35.10551147 2.94946289 35.11352539 C1 35 1 35 0 34 C-0.08847743 31.47905924 -0.11527301 28.98569107 -0.09765625 26.46484375 C-0.0962413 25.71159317 -0.09482635 24.95834259 -0.09336853 24.18226624 C-0.08775376 21.7673044 -0.07519883 19.35243399 -0.0625 16.9375 C-0.0574869 15.30403779 -0.05292366 13.67057414 -0.04882812 12.03710938 C-0.03777954 8.02470415 -0.02050506 4.01236759 0 0 Z " fill="#FDFDFD" transform="translate(1081,177)"/>
<path d="M0 0 C3 0.5625 3 0.5625 5 2.25 C6 4.5625 6 4.5625 5.25 7.25 C4 9.5625 4 9.5625 3 10.5625 C0.125 10.9375 0.125 10.9375 -3 10.5625 C-4.875 8.0625 -4.875 8.0625 -6 5.5625 C-3.81911263 0.71608362 -3.81911263 0.71608362 0 0 Z " fill="#FDFDFD" transform="translate(1164,201.4375)"/>
</svg>
